<svg width="260" height="54" viewBox="0 0 260 54" fill="none" xmlns="http://www.w3.org/2000/svg">
<path d="M257.852 25.3634C258.772 25.3634 259.408 25.7369 259.758 26.4621C260.109 27.1872 260.087 27.9124 259.715 28.6376C259.342 29.3627 258.685 29.7143 257.808 29.7143C256.69 29.7143 255.857 30.0879 255.266 30.9009C254.674 31.714 254.367 33.1423 254.301 35.2519L254.17 41.2729C254.082 45.7118 252.899 48.8322 250.575 50.6341C248.274 52.436 245.052 53.3369 240.932 53.293C240.318 53.293 239.902 52.9194 239.683 52.1943C239.464 51.4691 239.486 50.7439 239.727 50.0408C239.99 49.3376 240.406 48.986 240.976 48.986C242.62 49.0079 243.737 48.5465 244.329 47.5796C244.921 46.6347 245.228 44.657 245.228 41.6685L245.184 35.9771C245.14 33.1863 245.754 31.1207 247.025 29.7802C248.296 28.4398 249.655 27.6487 251.123 27.4509C249.677 27.2092 248.34 26.4401 247.091 25.1656C245.841 23.8911 245.206 21.9573 245.206 19.3423L245.228 12.5742C245.228 9.8933 244.921 8.09139 244.351 7.14648C243.759 6.20158 242.817 5.71814 241.48 5.71814C240.669 5.71814 240.165 5.34457 239.924 4.64139C239.683 3.93821 239.727 3.21305 240.055 2.48789C240.384 1.76273 240.888 1.41113 241.524 1.41113C250.29 1.49903 254.652 5.4105 254.564 13.1455L254.498 20.3092C254.477 22.1551 254.761 23.4296 255.353 24.1987C255.879 24.9678 256.734 25.3634 257.852 25.3634Z" fill="#07E2DC"/>
<path d="M2.85192 29.9786C1.93142 29.9786 1.29584 29.605 0.945175 28.8798C0.594508 28.1547 0.616425 27.4295 0.989008 26.7044C1.38351 25.9792 2.01909 25.6276 2.89576 25.6276C4.01351 25.6276 4.84634 25.254 5.41617 24.441C6.00792 23.6499 6.31476 22.1996 6.38051 20.09L6.49009 14.069C6.57776 9.63015 7.76126 6.50976 10.0625 4.68588C12.3638 2.86199 15.5855 1.98301 19.7058 2.02696C20.3195 2.02696 20.7359 2.40053 20.9551 3.12569C21.1743 3.85085 21.1523 4.57601 20.9113 5.27919C20.6483 5.98237 20.2318 6.33397 19.662 6.33397C18.0183 6.31199 16.9005 6.79543 16.3088 7.74034C15.717 8.68524 15.4102 10.6629 15.4321 13.6515L15.4978 19.3209C15.5417 22.1117 14.928 24.1773 13.6568 25.5177C12.3857 26.8582 11.0268 27.6493 9.58034 27.869C11.0268 28.1107 12.3857 28.8798 13.613 30.1544C14.8623 31.4289 15.4978 33.3626 15.4978 35.9776V42.7458C15.5198 45.4266 15.8047 47.2286 16.3964 48.1735C16.9882 49.1184 17.9306 49.6018 19.2675 49.6018C20.0784 49.6018 20.5825 49.9754 20.8236 50.6786C21.0647 51.3817 21.0208 52.1069 20.6921 52.8321C20.3633 53.5572 19.8812 53.9088 19.2237 53.9088C10.457 53.8209 6.09559 49.9314 6.18326 42.1964L6.24901 35.0327C6.27092 33.1868 5.98601 31.9123 5.39426 31.1432C4.80251 30.3741 3.96967 29.9786 2.85192 29.9786Z" fill="#07E2DC"/>
<path d="M33.3594 14.025L36.9537 13.2339C38.1591 14.2667 39.0139 16.3323 39.6933 17.3651C41.0083 15.3654 43.9232 12.9482 49.0298 12.9482C54.1364 12.9482 57.3362 15.6511 58.5197 18.1123C59.484 15.6511 64.1304 12.9482 69.4561 12.9482C76.0969 12.9482 81.3569 17.431 81.3569 25.6275V43.6906H73.7518V26.5944C73.7518 22.8588 71.056 20.3317 67.5055 20.3317C65.5111 20.3317 62.2894 21.5403 61.325 23.54V43.6686H53.72V26.5724C53.72 22.8368 51.3091 20.3097 47.8244 20.3097C44.8437 20.3097 41.074 22.3094 41.074 24.5068V43.6686H33.3594V14.025Z" fill="white"/>
<path d="M91.1094 16.4415L92.0299 14.5517H94.09L95.1201 8.06926L101.476 3.25684L99.635 14.5517H110.002L108.73 19.1444H98.9555L96.8954 32.1094C96.7858 32.5709 96.7858 32.8565 96.7858 33.2081C96.7858 37.4052 98.561 39.339 101.191 39.339C103.646 39.339 105.421 38.5919 106.122 37.8447L108.182 42.2616C106.933 43.69 103.098 44.2613 100.621 44.2613C94.3311 44.2613 91.1751 39.7785 91.1751 34.5705C91.1751 33.8234 91.2409 33.0323 91.3505 32.1533L93.4106 19.1224L91.1094 16.4415Z" fill="white"/>
<path d="M111.473 43.6902L118.113 0.664062H123.264L120.524 18.2217C123.33 15.0574 126.639 13.8488 131.329 13.8488C136.589 13.8488 140.534 17.8701 140.534 23.8252C140.534 24.5064 140.468 25.1437 140.359 25.8249L137.663 43.6682H132.578L135.165 26.9676C135.23 26.4402 135.274 26.0007 135.274 25.4733C135.274 21.452 134.025 18.6392 129.729 18.6392C125.434 18.6392 119.889 21.6717 119.428 24.7262L116.557 43.6682L111.473 43.6902Z" fill="white"/>
<path d="M146.035 43.6905L150.506 14.772L153.311 14.3105L153.706 19.7602C156.117 16.5519 159.996 14.3105 164.752 14.3105C166.812 14.3105 168.368 14.772 169.552 15.8707L167.886 20.3535C166.746 19.5625 165.19 19.1449 162.801 19.1449C158.462 19.1449 154.276 23.1663 153.531 27.9348L151.12 43.7125L146.035 43.6905Z" fill="white"/>
<path d="M174.876 26.4845H191.927C191.927 22.1775 189.407 18.5737 183.928 18.5737C179.391 18.5517 175.687 20.9689 174.876 26.4845ZM196.508 25.6056C196.508 29.3852 194.272 30.7037 191.292 30.7037H174.021C173.956 31.0552 173.956 31.3409 173.956 31.6266C173.956 36.3291 177.857 39.4935 182.021 39.4935C185.506 39.4935 188.201 37.7135 189.977 35.0766L193.637 37.9552C190.722 41.6909 187.237 44.2619 181.67 44.2619C174.854 44.2619 169.375 38.988 169.375 30.3301C169.375 19.8263 175.49 13.8712 184.191 13.8712C190.262 13.8492 196.508 18.7935 196.508 25.6056Z" fill="white"/>
<path d="M205.712 26.4845H222.763C222.763 22.1775 220.243 18.5737 214.764 18.5737C210.227 18.5517 206.523 20.9689 205.712 26.4845ZM227.344 25.6056C227.344 29.3852 225.108 30.7037 222.128 30.7037H204.857C204.792 31.0552 204.792 31.3409 204.792 31.6266C204.792 36.3291 208.693 39.4935 212.857 39.4935C216.342 39.4935 219.037 37.7135 220.813 35.0766L224.473 37.9552C221.558 41.6909 218.073 44.2619 212.506 44.2619C205.69 44.2619 200.211 38.988 200.211 30.3301C200.211 19.8263 206.326 13.8712 215.027 13.8712C221.098 13.8492 227.344 18.7935 227.344 25.6056Z" fill="white"/>
</svg>
